<svg xmlns="http://www.w3.org/2000/svg" viewBox="0 0 24 24" height="24px" width="24px">
	<path d="M12,9.7c-1.3,0-2.3,1-2.3,2.3s1.1,2.3,2.3,2.3s2.3-1,2.3-2.3S13.3,9.7,12,9.7z" />
	<path
		d="M24,12c0-1.7-1.6-3-4.9-3.9c0.7-3.1,0.4-5.3-1.2-6.1C16.5,1.1,14.5,1.8,12,4c-2.4-2.2-4.6-3-6-2.1C4.5,2.8,4.1,4.8,4.9,8
	C1.7,8.9,0,10.2,0,11.9c0,2.2,3,3.5,4.9,4C4.1,19.1,4.6,21.1,6,22c2,1.2,4.6-0.7,6.1-2.1c1.8,1.6,3.3,2.4,4.6,2.4
	c0.4,0,0.9-0.1,1.3-0.4c2-1.2,1.6-4.2,1.2-6.1C22.3,15,24,13.6,24,12z M8.1,8.9c-0.3,0.4-0.5,1-0.8,1.4C7.1,9.9,6.9,9.5,6.8,9.1
	C7.2,9,7.6,9,8.1,8.9z M6.7,15c0.2-0.4,0.3-0.8,0.4-1.3c0.3,0.5,0.5,1,0.9,1.4C7.6,15.1,7.2,15,6.7,15z M15.9,8.9
	C16.4,9,16.8,9,17.3,9.1c-0.1,0.4-0.3,0.8-0.4,1.2C16.5,9.8,16.2,9.3,15.9,8.9z M15.9,15.1c0.3-0.5,0.6-1,0.9-1.5
	c0.2,0.4,0.4,0.8,0.4,1.3C16.8,15,16.4,15.1,15.9,15.1z M8,12c0.5-1.2,1.3-2.3,2-3.3c1.3-0.1,2.7-0.1,4,0c0.7,1.1,1.4,2.1,2,3.3
	c-0.5,1.2-1.3,2.2-2,3.4c-1.3,0.1-2.7,0.1-4,0C9.2,14.3,8.6,13.2,8,12z M17.6,7.7c-0.9-0.2-1.8-0.4-2.9-0.4
	c-0.5-0.8-1.2-1.5-1.8-2.1c0.9-0.8,3-2.6,4.1-1.9C18.1,3.7,18.3,5.2,17.6,7.7z M11.2,7.1c0.3-0.4,0.5-0.7,0.9-1
	c0.3,0.3,0.5,0.6,0.8,1c-0.3,0-0.5,0-0.9,0C11.7,7.1,11.5,7.1,11.2,7.1z M9.1,7.3c-1,0.1-2,0.3-2.8,0.4C6,6.5,5.5,3.9,6.7,3.2
	C7.6,2.7,9,3.4,10.9,5.1C10.3,5.7,9.8,6.5,9.1,7.3z M5.3,9.4c0.3,0.9,0.6,1.7,1.1,2.6c-0.4,0.9-0.8,1.8-1.1,2.6
	C2.9,13.9,1.5,13,1.5,12C1.5,10.6,4.1,9.8,5.3,9.4z M6.4,16.4c0.9,0.2,1.8,0.3,2.9,0.4c0.5,0.8,1.2,1.5,1.8,2.1
	c-0.9,0.8-3,2.5-4.2,1.9C5.5,20.2,6.1,17.6,6.4,16.4z M11.2,16.9c0.6,0,1.2,0,1.7,0c-0.3,0.4-0.5,0.7-0.9,1
	C11.7,17.6,11.5,17.3,11.2,16.9z M13.1,19c0.6-0.6,1.2-1.3,1.8-2.1c1-0.1,2-0.3,2.9-0.4c0.5,2.4,0.4,3.9-0.4,4.5
	C16,21.5,14.1,19.8,13.1,19z M18.7,9.4c1.3,0.4,3.8,1.2,3.8,2.5c0,1.4-2.5,2.2-3.8,2.6c-0.3-0.7-0.6-1.6-1.1-2.5
	C18.1,11.1,18.4,10.3,18.7,9.4z" />
</svg>