<svg xmlns="http://www.w3.org/2000/svg" height="24px" viewBox="0 -960 960 960" width="24px" fill="808080"><path d="M627.33-151.33q-138.6 0-233.97-95.99Q298-343.3 298-480.12q0-136.88 95.36-233.05 95.37-96.16 233.97-96.16 135.34 0 231.5 96.08Q955-617.16 955-480.08q0 137.02-96.17 232.88-96.16 95.87-231.5 95.87Zm48-349.74v-88.26q0-20.67-14.08-35.17T626.49-639q-20.68 0-34.42 14.58-13.74 14.59-13.74 35.09V-482q0 9.71 3.5 19.85 3.5 10.15 11.5 16.48L674-364.33q14.2 15 33.86 15 19.67 0 34.74-14.97 15.07-14.96 15.07-34.61 0-19.64-15-34.42l-67.34-67.74Zm-580.81-90.6q-22.02 0-35.77-14.33Q45-620.33 45-640.16q0-19.84 13.75-34.67 13.75-14.84 35.77-14.84h115.15q19.76 0 34.05 14.81Q258-660.05 258-640.01q0 20.03-14.28 34.19-14.29 14.15-34.05 14.15H94.52Zm-40 160q-22.02 0-35.77-14.33Q5-460.33 5-480.16 5-500 18.75-514.83q13.75-14.84 35.77-14.84h155.15q19.76 0 34.05 14.81Q258-500.05 258-480.01q0 20.03-14.28 34.19-14.29 14.15-34.05 14.15H54.52Zm40 160q-22.02 0-35.77-14.33Q45-300.33 45-320.16q0-19.84 13.75-34.67 13.75-14.84 35.77-14.84h115.15q19.76 0 34.05 14.81Q258-340.05 258-320.01q0 20.03-14.28 34.19-14.29 14.15-34.05 14.15H94.52Z"/></svg>