<svg xmlns="http://www.w3.org/2000/svg" height="24px" viewBox="0 -960 960 960" width="24px" fill="808080"><path d="M338-307H105q-21 0-33.5-12.5t-12.5-33Q59-373 71.5-386t33.5-13h233l-74-73q-13-14-13-32t13-32q12-13 31.5-13t32.5 13l150 150q6 7 10.5 15.5T493-353q0 9-4.5 17.5T478-321L328-171q-14 14-33 14.5T264-171q-13-12-13-31t13-32l74-73Zm286-254 73 72q12 15 12 33t-12 30q-13 15-32.5 15T633-425L482-575q-6-6-10-14.5t-4-17.5q0-9 4-17.5t10-15.5l150-150q14-13 33-13.5t32 13.5q12 13 12 32t-12 31l-73 74h232q20 0 33 12.5t13 33q0 20.5-13 33.5t-33 13H624Z"/></svg>