<svg xmlns="http://www.w3.org/2000/svg" viewBox="0 0 285.85 48"><defs><style>.cls-1{fill:#2b80ff;}.cls-2{fill:#fff;}</style></defs><g id="Layer_2" data-name="Layer 2"><g id="Layer_1-2" data-name="Layer 1"><g id="box"><rect class="cls-1" width="48" height="48" rx="12"/></g><path id="cotton" class="cls-2" d="M37.75,24A10,10,0,1,0,24,10.25,10,10,0,1,0,10.25,24,10,10,0,1,0,24,37.75,10,10,0,1,0,37.75,24Z"/><path class="cls-1" d="M89.11,31.64a10.82,10.82,0,0,1-6.47,7,14.73,14.73,0,0,1-5.34.92,12.93,12.93,0,0,1-7-1.87,12.47,12.47,0,0,1-4.66-5.29A18.32,18.32,0,0,1,64,24.25a18.32,18.32,0,0,1,1.67-8.15,12.47,12.47,0,0,1,4.66-5.29,12.85,12.85,0,0,1,7-1.87,15.47,15.47,0,0,1,5.41.86,9.41,9.41,0,0,1,3.83,2.56,10.93,10.93,0,0,1,2.3,4.23l-1.21.59A9.81,9.81,0,0,0,84,11.84a11.39,11.39,0,0,0-6.67-1.77A11.38,11.38,0,0,0,71,11.8a11.63,11.63,0,0,0-4.22,4.91,17.48,17.48,0,0,0-1.51,7.54,17.48,17.48,0,0,0,1.51,7.54A11.57,11.57,0,0,0,71,36.7a11.38,11.38,0,0,0,6.31,1.73,11.62,11.62,0,0,0,6.78-1.91,9.45,9.45,0,0,0,3.77-5.34Z"/><path class="cls-1" d="M103.53,16.14a10.71,10.71,0,0,1,5.5,1.4,9.61,9.61,0,0,1,3.74,4,13.63,13.63,0,0,1,1.35,6.28,13.6,13.6,0,0,1-1.35,6.28,9.61,9.61,0,0,1-3.74,4,11.5,11.5,0,0,1-11,0,9.78,9.78,0,0,1-3.76-4,13.35,13.35,0,0,1-1.38-6.28,13.38,13.38,0,0,1,1.38-6.28,9.78,9.78,0,0,1,3.76-4A10.71,10.71,0,0,1,103.53,16.14Zm0,1.09a9.15,9.15,0,0,0-4.89,1.28,8.79,8.79,0,0,0-3.29,3.65,12.42,12.42,0,0,0-1.19,5.69,12.55,12.55,0,0,0,1.19,5.68,8.84,8.84,0,0,0,3.29,3.67,9.9,9.9,0,0,0,9.74,0,8.71,8.71,0,0,0,3.26-3.67,12.69,12.69,0,0,0,1.18-5.68,12.55,12.55,0,0,0-1.18-5.69,8.65,8.65,0,0,0-3.26-3.65A9.08,9.08,0,0,0,103.53,17.23Z"/><path class="cls-1" d="M131.07,16.59v1.09H116.69V16.59Zm-8.61-6.12V33.35a5.79,5.79,0,0,0,1.08,3.78,4.11,4.11,0,0,0,3.34,1.3,5.62,5.62,0,0,0,2.21-.42,5.47,5.47,0,0,0,1.76-1.24l.54,1a5.44,5.44,0,0,1-1.94,1.26,7,7,0,0,1-2.66.5,6.32,6.32,0,0,1-3-.68,4.23,4.23,0,0,1-1.92-2,8.16,8.16,0,0,1-.63-3.4V10.83Z"/><path class="cls-1" d="M146.13,16.59v1.09H131.75V16.59Zm-8.61-6.12V33.35a5.79,5.79,0,0,0,1.08,3.78,4.07,4.07,0,0,0,3.33,1.3,5.58,5.58,0,0,0,2.21-.42,5.37,5.37,0,0,0,1.76-1.24l.54,1a5.44,5.44,0,0,1-1.94,1.26,7,7,0,0,1-2.66.5,6.34,6.34,0,0,1-3-.68,4.26,4.26,0,0,1-1.91-2,8.16,8.16,0,0,1-.63-3.4V10.83Z"/><path class="cls-1" d="M159.65,16.14a10.74,10.74,0,0,1,5.5,1.4,9.61,9.61,0,0,1,3.74,4,13.63,13.63,0,0,1,1.35,6.28,13.6,13.6,0,0,1-1.35,6.28,9.61,9.61,0,0,1-3.74,4,11.5,11.5,0,0,1-11,0,9.72,9.72,0,0,1-3.76-4A13.35,13.35,0,0,1,149,27.85a13.38,13.38,0,0,1,1.38-6.28,9.72,9.72,0,0,1,3.76-4A10.69,10.69,0,0,1,159.65,16.14Zm0,1.09a9.1,9.1,0,0,0-4.89,1.28,8.72,8.72,0,0,0-3.29,3.65,12.42,12.42,0,0,0-1.2,5.69,12.55,12.55,0,0,0,1.2,5.68,8.77,8.77,0,0,0,3.29,3.67,9.89,9.89,0,0,0,9.73,0,8.67,8.67,0,0,0,3.27-3.67,12.82,12.82,0,0,0,1.17-5.68,12.69,12.69,0,0,0-1.17-5.69,8.61,8.61,0,0,0-3.27-3.65A9,9,0,0,0,159.65,17.23Z"/><path class="cls-1" d="M176.5,39.11V16.59h1.18l0,6.08-.13-.22a8.53,8.53,0,0,1,1.82-3.29,8.76,8.76,0,0,1,3.16-2.23,10.69,10.69,0,0,1,4.17-.79,9.74,9.74,0,0,1,4.46,1,7.17,7.17,0,0,1,3,2.77,8.73,8.73,0,0,1,1.06,4.51V39.11H194V24.7a7.25,7.25,0,0,0-2-5.54,7.53,7.53,0,0,0-5.38-1.89,8.88,8.88,0,0,0-4.44,1.13,8.5,8.5,0,0,0-3.18,3.06,8.35,8.35,0,0,0-1.17,4.41V39.11Z"/><path class="cls-1" d="M216.53,39.11V9.39H227q4.63,0,7,2a7,7,0,0,1,2.35,5.7,7.1,7.1,0,0,1-1.45,4.57,7.27,7.27,0,0,1-4.32,2.45v.05a8,8,0,0,1,4.82,2.31,6.92,6.92,0,0,1,1.76,4.93,6.87,6.87,0,0,1-2.57,5.75c-1.71,1.33-4.24,2-7.57,2Zm1.26-15.58H227q8,0,8-6.44t-8-6.57h-9.2Zm0,14.45h9.38q4.28,0,6.47-1.71a5.92,5.92,0,0,0,2.18-5,5.85,5.85,0,0,0-2.18-4.95q-2.19-1.66-6.47-1.67h-9.38Z"/><path class="cls-1" d="M252.77,16.14a10.74,10.74,0,0,1,5.5,1.4,9.61,9.61,0,0,1,3.74,4,13.63,13.63,0,0,1,1.35,6.28A13.6,13.6,0,0,1,262,34.13a9.61,9.61,0,0,1-3.74,4,11.5,11.5,0,0,1-11,0,9.72,9.72,0,0,1-3.76-4,13.35,13.35,0,0,1-1.38-6.28,13.38,13.38,0,0,1,1.38-6.28,9.72,9.72,0,0,1,3.76-4A10.69,10.69,0,0,1,252.77,16.14Zm0,1.09a9.1,9.1,0,0,0-4.89,1.28,8.72,8.72,0,0,0-3.29,3.65,12.42,12.42,0,0,0-1.2,5.69,12.55,12.55,0,0,0,1.2,5.68,8.77,8.77,0,0,0,3.29,3.67,9.89,9.89,0,0,0,9.73,0,8.67,8.67,0,0,0,3.27-3.67,12.82,12.82,0,0,0,1.17-5.68,12.69,12.69,0,0,0-1.17-5.69,8.61,8.61,0,0,0-3.27-3.65A9,9,0,0,0,252.77,17.23Z"/><path class="cls-1" d="M284.77,16.59l-8.61,11.08-.27.32-8.65,11.12h-1.58L275.12,27l.14-.14,7.89-10.27Zm-17,0,8.12,10.09.18.23,9.82,12.2h-1.71l-8.88-11-.23-.27-9-11.22Z"/></g></g></svg>