<svg xmlns="http://www.w3.org/2000/svg" height="24px" viewBox="0 -960 960 960" width="24px" fill="808080"><path d="M419.48-336.05Q434-350.1 434-369.96v-219.76q0-19.85-14.09-34.07-14.09-14.21-34-14.21t-34.41 14.05Q337-609.9 337-590.04v219.76q0 19.86 14.37 34.07T385.35-322q19.61 0 34.13-14.05Zm189.5 0Q623-350.1 623-369.96v-219.76q0-19.85-13.89-34.07Q595.23-638 575.61-638 556-638 541-623.95t-15 33.91v219.76q0 19.86 14.57 34.07T575.05-322q19.91 0 33.93-14.05ZM480.28-50Q391-50 312.51-83.08q-78.48-33.09-137.41-92.02-58.93-58.93-92.02-137.37Q50-390.92 50-480.46t33.08-167.53q33.09-77.98 92.18-136.89 59.09-58.9 137.37-92.01Q390.92-910 480.46-910t167.57 33.09q78.04 33.1 136.91 91.97 58.87 58.87 91.97 137.13Q910-569.55 910-480.28q0 89.28-33.11 167.61-33.11 78.32-92.01 137.41-58.91 59.09-137.12 92.18Q569.55-50 480.28-50Z"/></svg>